# xmcd CD database file
#
# Track frame offsets:
#	150
#	21817
#	41050
#	58257
#	79065
#	98605
#	122582
#	139005
#	164562
#	182847
#	204147
#	227507
#	247367
#	287630
#
# Disc length: 4440 seconds
#
# Revision: 3
# Processed by: cddbd v1.5.2PL0 Copyright (c) Steve Scherf et al.
# Submitted via: CDex 1.70beta2
#
DISCID=c111560e
DTITLE=day after tomorrow - primary colors
DYEAR=2004
DGENRE=Pop
TTITLE0=Starry Heavens
TTITLE1=タイムマシーンで連れ出して
TTITLE2=フィットネス
TTITLE3=Show Time
TTITLE4=イタズラなKiss
TTITLE5=CURRENT
TTITLE6=少女のままでいたあの頃
TTITLE7=regret
TTITLE8=wind flower -spring ephemeral-
TTITLE9=Dear Friends
TTITLE10=These Days
TTITLE11=It's My Way
TTITLE12=螢火
TTITLE13=DATA TRACK
EXTD=YEAR: 2004
EXTT0=
EXTT1=
EXTT2=
EXTT3=
EXTT4=
EXTT5=
EXTT6=
EXTT7=
EXTT8=
EXTT9=
EXTT10=
EXTT11=
EXTT12=
EXTT13=
PLAYORDER=
